# xmcd
#
# Track frame offsets:
#	150
#	13458
#	25026
#	36931
#	50524
#	60832
#	72100
#	81530
#	93022
#	104894
#	116611
#	128194
#	139604
#	152004
#	161359
#	172732
#
# Disc length: 2451 seconds
#
# Revision: 1
# Processed by: cddbd v1.5.2PL0 Copyright (c) Steve Scherf et al.
# Submitted via: EZCDAudioConverter 3.1.7.1
#
DISCID=cc099110
DTITLE=VA_ - Stompin Volume Five  (33rpm)
DYEAR=1900
DGENRE=Rhythm and Blues
TTITLE0=Gabriel and His Band Of Angels - I'm Gabriel
TTITLE1=Morris Pejoe - She Walked Right In
TTITLE2=Rayvon Darnell - Don't Want You Maybellene
TTITLE3=Gene and Billy - It's Hot
TTITLE4=Larry Birdsong - Fannie's Place
TTITLE5=H-Bomb Ferguson and His Mad Lads - No Sackie Sack
TTITLE6=Rudy Green - Meet Me Baby
TTITLE7=Paul Perryman - Satellite Fever-Asiatic Flu
TTITLE8=Little Willie Littlefield - Baby Shame
TTITLE9=Homesick James - Can't Afford To Do It
TTITLE10=Lonnie Brooks - Mr  Hot Shot
TTITLE11=Larry Davis - I Tried
TTITLE12=Rollee McGill - Rhythm Rockin' Blues
TTITLE13=Lloyd George - Sing Real Loud
TTITLE14=Earl Gilliam - Wrong Doin' Woman
TTITLE15=Jimmy Nolen - I Can't Stand You No More
EXTD=
EXTT0=
EXTT1=
EXTT2=
EXTT3=
EXTT4=
EXTT5=
EXTT6=
EXTT7=
EXTT8=
EXTT9=
EXTT10=
EXTT11=
EXTT12=
EXTT13=
EXTT14=
EXTT15=
PLAYORDER=
